<?xml version="1.0" encoding="UTF-8"?>
<svg id="Calque_2" data-name="Calque 2" xmlns="http://www.w3.org/2000/svg" viewBox="0 0 468.37 320.21">
  <defs>
    <style>
      .cls-1 {
        fill: #c60000;
      }
    </style>
  </defs>
  <g id="Calque_1-2" data-name="Calque 1">
    <g>
      <path class="cls-1" d="M339.77,136.77l26.41-26.41,23.88-23.88c2.61-2.61,4.05-6.09,4.05-9.78s-1.44-7.17-4.05-9.79l-23.88-23.88-13.42-13.41-13-13c-.18-.18-.37-.36-.57-.54-2.53-2.27-5.81-3.51-9.21-3.51-.63,0-1.27.04-1.9.13-.26.04-.52.08-.79.13-2.21.44-4.31,1.42-6.05,2.84-.16.13-.32.27-.49.41-.19.17-.38.35-.57.54l-31.79,31.79,2.66,2.66,5.38-5.38,13.42-13.42,12.99-12.99c.14-.14.27-.27.42-.4,3.82-3.41,9.6-3.41,13.42,0,.14.13.28.26.42.4l13,13,13.42,13.41,13.42,13.41,10.46,10.46c1.97,1.97,2.95,4.55,2.95,7.13s-.98,5.16-2.95,7.12l-10.46,10.46-13.42,13.41-13.42,13.41-13,13c-.14.14-.27.27-.42.4-3.81,3.41-9.6,3.41-13.42,0-.14-.13-.28-.26-.42-.4l-12.99-12.99-13.42-13.41-5.38-5.38-2.66,2.66,31.79,31.79c.18.18.37.36.57.54,2.54,2.27,5.81,3.51,9.21,3.51.63,0,1.27-.04,1.9-.13.34-.05.68-.11,1.01-.18,2.34-.5,4.52-1.61,6.31-3.21.19-.17.38-.35.57-.54Z"/>
      <path class="cls-1" d="M387.41,83.82c1.97-1.97,2.95-4.55,2.95-7.12s-.98-5.16-2.95-7.13l-10.46-10.46v35.18l10.46-10.46Z"/>
      <polygon class="cls-1" points="363.53 107.7 363.53 45.69 350.11 32.28 350.11 121.11 363.53 107.7"/>
      <path class="cls-1" d="M336.7,134.5V18.89c-3.81-3.41-9.6-3.41-13.42,0v115.61c3.82,3.41,9.6,3.41,13.42,0Z"/>
      <path class="cls-1" d="M154.64,87.61c-3.62-1.32-9.22.87-11.77,6.25-1.71,3.26-2.59,6.59-2.72,10.18h2.41c.01-.06.02-.13.03-.19.02-.16.04-.33.11-.51.67-1.86,3.64-6.26,6.35-6.36h.12s.1.05.1.05c1.53.83.49,3.74-.2,5.66-.02.06-.05.13-.07.19,4.39-.62,7.56-3.18,8.54-6.93,1.1-4.22.05-7.26-2.9-8.33Z"/>
      <path class="cls-1" d="M124.34,97.28l.1-.05h.12c2.71.11,5.68,4.51,6.35,6.37.06.16.08.31.1.45h2.44c-.16-3.49-1.04-6.74-2.7-9.92-2.56-5.39-8.16-7.58-11.78-6.26-2.95,1.07-4,4.11-2.9,8.33.98,3.75,4.15,6.31,8.54,6.93-.02-.06-.04-.12-.07-.19-.69-1.93-1.73-4.83-.2-5.66Z"/>
      <path class="cls-1" d="M132.77,93.43c.49,1.22,1.01,2.48,1.45,3.74.71,2.02,1.03,4.27.97,6.87h3.19c-.09-2.09.23-4.29.98-6.85.47-1.42,1.04-2.82,1.59-4.17.92-2.27,1.87-4.61,2.36-7.02,1.38-6.8-1.6-12.04-6.52-17.83-5.57,6.02-7.7,11.85-6.51,17.83.5,2.55,1.51,5.03,2.49,7.43Z"/>
      <path class="cls-1" d="M140.66,108.05h-7.72c-.93,2.14-3.39,5.32-5.19,7,.68-.11,1.53-.27,2.22-.42.74-.16,1.62-.65,2.32-1.04.9-.5,1.31-.72,1.66-.5.16.1.24.28.23.48,0,2.56.69,7.06,2.61,9.21,1.91-2.34,2.61-6.4,2.62-9.21,0-.2.07-.38.23-.48.35-.23.76,0,1.66.5.71.39,1.58.88,2.32,1.04.69.15,1.55.31,2.22.42-1.81-1.68-4.26-4.86-5.19-7Z"/>
      <rect class="cls-1" x="127.51" y="104.89" width="18.61" height="2.3"/>
      <path class="cls-1" d="M296.46,96.94v10.76l13.42,13.41v-41.92c.26-1.66.26-3.34,0-5v-41.92l-13.42,13.42v10.76l-5.38-5.38-2.66-2.66L244.67,4.67c-3.01-3.01-7.01-4.67-11.27-4.67s-8.26,1.66-11.27,4.67l-30.38,30.38-13.37,13.37-31.79-31.79c-2.61-2.61-6.09-4.05-9.79-4.05s-7.17,1.44-9.78,4.05l-50.29,50.29c-5.4,5.4-5.4,14.17,0,19.57l50.29,50.29c2.61,2.61,6.09,4.05,9.78,4.05s7.17-1.44,9.79-4.05l31.79-31.79,43.75,43.75c3.01,3.01,7.01,4.67,11.27,4.67s8.26-1.66,11.27-4.67l43.75-43.75,2.66-2.66,5.38-5.38ZM143.93,134.11c-3.93,3.94-10.32,3.94-14.25,0l-50.29-50.29c-3.93-3.94-3.93-10.32,0-14.25l50.29-50.29c3.93-3.94,10.32-3.94,14.25,0l31.79,31.79-6.05,6.05-3.24-8.27-59.19-.05-5.47,13.78h12.72l-3.98-9.91h23.86l-3.89,9.9h12.7l-3.95-9.89h23.85l-3.98,9.91h5.07s-2.82,2.83-2.82,2.83c-3.01,3.01-4.67,7.01-4.67,11.27s1.66,8.26,4.67,11.27l14.35,14.35-31.79,31.79ZM272.39,115.69l-38.99-38.99-38.99,38.99-30.38-30.38c-4.76-4.76-4.76-12.46,0-17.22l30.38-30.38,38.99,38.99,38.99-38.99,30.38,30.38c4.75,4.76,4.75,12.46,0,17.22l-30.38,30.38Z"/>
      <polygon class="cls-1" points="13.65 228.91 39.82 228.91 39.82 218.55 13.65 218.55 13.65 170.69 0 170.69 0 228.91 4.23 228.91 13.65 228.91"/>
      <polygon class="cls-1" points="87.04 218.73 60.7 218.73 60.7 204.22 80.88 204.22 80.88 194.58 60.7 194.58 60.7 180.86 84.4 180.86 84.4 170.69 47.31 170.69 47.31 228.91 87.04 228.91 87.04 218.73"/>
      <path class="cls-1" d="M131.22,221.74c2.05-2.83,3.08-6.34,3.08-10.53,0-2.59-.47-4.82-1.41-6.68-.94-1.86-2.17-3.46-3.7-4.82-1.53-1.36-3.2-2.53-5.02-3.54-1.82-1-3.66-1.92-5.51-2.74-1.85-.83-3.54-1.64-5.07-2.43-1.53-.8-2.76-1.67-3.7-2.61-.94-.94-1.41-2.09-1.41-3.45,0-.83.2-1.67.62-2.52.41-.85,1.09-1.58,2.03-2.17.94-.59,2.2-.88,3.79-.88,1.94,0,4.1.43,6.48,1.28,2.38.86,4.57,2.05,6.56,3.58l4.58-11.59c-2.29-1.12-4.87-1.95-7.75-2.48-2.88-.53-5.49-.8-7.84-.8-4,0-7.56.74-10.7,2.21-3.14,1.48-5.62,3.58-7.44,6.33-1.82,2.74-2.73,6.03-2.73,9.87,0,2.6.45,4.82,1.37,6.68.91,1.86,2.13,3.44,3.66,4.73,1.53,1.3,3.22,2.43,5.06,3.41,1.85.97,3.67,1.86,5.46,2.65,1.79.8,3.45,1.59,4.98,2.39,1.53.8,2.76,1.71,3.7,2.74.94,1.03,1.41,2.26,1.41,3.67,0,1.83-.63,3.27-1.89,4.34-1.26,1.06-2.98,1.59-5.15,1.59-2.58,0-5.29-.59-8.1-1.77-2.82-1.18-5.43-2.68-7.84-4.51l-5.29,11.24c2.23,1.36,4.96,2.58,8.19,3.67s6.78,1.64,10.66,1.64,7.56-.71,10.88-2.12c3.32-1.42,6-3.54,8.06-6.37Z"/>
      <polygon class="cls-1" points="204.95 181.13 204.95 170.69 167.25 170.69 167.25 228.91 180.91 228.91 180.91 207.32 201.61 207.32 201.61 196.96 180.91 196.96 180.91 181.13 204.95 181.13"/>
      <rect class="cls-1" x="214.28" y="170.69" width="14.01" height="58.22"/>
      <polygon class="cls-1" points="242.26 170.69 242.26 228.91 246.49 228.91 255.92 228.91 282.08 228.91 282.08 218.55 255.92 218.55 255.92 170.69 242.26 170.69"/>
      <path class="cls-1" d="M323.28,199.71c-1.53-1.36-3.2-2.53-5.02-3.54-1.82-1-3.66-1.92-5.51-2.74-1.85-.83-3.54-1.64-5.06-2.43-1.53-.8-2.76-1.67-3.7-2.61-.94-.94-1.41-2.09-1.41-3.45,0-.83.2-1.67.62-2.52.41-.85,1.08-1.58,2.03-2.17.94-.59,2.2-.88,3.79-.88,1.94,0,4.1.43,6.48,1.28,2.38.86,4.57,2.05,6.56,3.58l4.58-11.59c-2.29-1.12-4.88-1.95-7.75-2.48-2.88-.53-5.49-.8-7.84-.8-3.99,0-7.56.74-10.7,2.21-3.14,1.48-5.62,3.58-7.44,6.33-1.82,2.74-2.73,6.03-2.73,9.87,0,2.6.45,4.82,1.37,6.68.91,1.86,2.13,3.44,3.66,4.73,1.53,1.3,3.21,2.43,5.06,3.41,1.85.97,3.67,1.86,5.46,2.65,1.79.8,3.45,1.59,4.98,2.39,1.53.8,2.76,1.71,3.7,2.74.94,1.03,1.41,2.26,1.41,3.67,0,1.83-.63,3.27-1.89,4.34-1.26,1.06-2.98,1.59-5.15,1.59-2.59,0-5.29-.59-8.1-1.77-2.82-1.18-5.43-2.68-7.84-4.51l-5.29,11.24c2.23,1.36,4.96,2.58,8.19,3.67,3.23,1.09,6.78,1.64,10.66,1.64s7.56-.71,10.88-2.12c3.32-1.42,6-3.54,8.06-6.37,2.05-2.83,3.08-6.34,3.08-10.53,0-2.59-.47-4.82-1.41-6.68-.94-1.86-2.17-3.46-3.7-4.82Z"/>
      <path class="cls-1" d="M405.29,177.59c-2.99-2.3-6.52-4.03-10.57-5.18-4.05-1.15-8.43-1.73-13.13-1.73h-20.26v58.22h18.94c5.93,0,11.07-.83,15.42-2.48,4.35-1.65,7.93-3.91,10.75-6.77,2.82-2.86,4.92-6.13,6.3-9.82,1.38-3.69,2.07-7.56,2.07-11.63,0-4.54-.84-8.54-2.51-11.99-1.67-3.45-4.01-6.33-7-8.63ZM399.44,207.76c-.56,2.3-1.54,4.35-2.95,6.15-1.41,1.8-3.33,3.22-5.77,4.25-2.44,1.03-5.5,1.55-9.21,1.55h-6.52v-39.64h5.55c4.93,0,8.84.94,11.72,2.83,2.88,1.89,4.93,4.37,6.17,7.43,1.23,3.07,1.85,6.43,1.85,10.09,0,2.6-.28,5.04-.84,7.34Z"/>
      <polygon class="cls-1" points="464.83 218.73 438.49 218.73 438.49 204.22 458.66 204.22 458.66 194.58 438.49 194.58 438.49 180.86 462.18 180.86 462.18 170.69 425.1 170.69 425.1 228.91 464.83 228.91 464.83 218.73"/>
      <path class="cls-1" d="M40.54,279.03c.23-.18.47-.37.69-.56,2.32-1.95,4.14-4.21,5.46-6.78,1.32-2.57,1.98-5.4,1.98-8.49,0-3.45-.99-6.49-2.98-9.1-1.99-2.61-4.71-4.61-8.16-6.01-3.46-1.4-7.39-2.09-11.8-2.09H.05v72.56h24.15c6.03,0,11.21-.94,15.55-2.81,4.34-1.87,7.7-4.45,10.09-7.72,2.39-3.27,3.58-7,3.58-11.19s-1.18-7.9-3.53-10.92c-2.28-2.91-5.39-5.21-9.35-6.88ZM15.27,257.58h7.83c4.12,0,6.91.92,8.38,2.76,1.47,1.84,2.21,3.93,2.21,6.29,0,2.65-.83,4.76-2.48,6.34-1.65,1.58-3.84,2.37-6.56,2.37h-9.37v-17.75ZM33.74,304.11c-1.8,1.76-4.58,2.65-8.33,2.65h-10.15v-20.07h7.83c4.78,0,8.2.92,10.26,2.76,2.06,1.84,3.09,4.3,3.09,7.39s-.9,5.51-2.7,7.28Z"/>
      <polygon class="cls-1" points="82.74 287.79 107.99 287.79 107.99 275.77 82.74 275.77 82.74 258.68 112.4 258.68 112.4 246 65.98 246 65.98 318.56 115.71 318.56 115.71 305.88 82.74 305.88 82.74 287.79"/>
      <path class="cls-1" d="M168.48,282.17c-1.91-1.69-4.01-3.16-6.28-4.41-2.28-1.25-4.58-2.39-6.89-3.42-2.32-1.03-4.43-2.04-6.34-3.03-1.91-.99-3.46-2.08-4.63-3.25-1.18-1.18-1.76-2.61-1.76-4.3,0-1.03.26-2.08.77-3.14.51-1.06,1.36-1.97,2.54-2.7,1.18-.73,2.76-1.1,4.74-1.1,2.43,0,5.13.53,8.1,1.6,2.98,1.07,5.71,2.56,8.21,4.47l5.73-14.45c-2.87-1.4-6.1-2.43-9.7-3.09-3.6-.66-6.88-.99-9.81-.99-5,0-9.47.92-13.4,2.76-3.93,1.84-7.04,4.47-9.32,7.88-2.28,3.42-3.42,7.52-3.42,12.3,0,3.24.57,6.01,1.71,8.33,1.14,2.32,2.66,4.28,4.58,5.9,1.91,1.62,4.02,3.03,6.34,4.25,2.32,1.21,4.59,2.32,6.84,3.31,2.24.99,4.32,1.99,6.23,2.98,1.91.99,3.45,2.13,4.63,3.42,1.17,1.29,1.76,2.81,1.76,4.58,0,2.28-.79,4.08-2.37,5.4-1.58,1.32-3.73,1.98-6.45,1.98-3.24,0-6.62-.73-10.15-2.21-3.53-1.47-6.8-3.34-9.81-5.62l-6.62,14c2.79,1.69,6.21,3.22,10.26,4.58,4.04,1.36,8.49,2.04,13.34,2.04s9.46-.88,13.62-2.65c4.15-1.76,7.52-4.41,10.09-7.94,2.57-3.53,3.86-7.9,3.86-13.12,0-3.23-.59-6.01-1.76-8.33-1.18-2.32-2.72-4.32-4.63-6.01Z"/>
      <path class="cls-1" d="M206.92,246l-28.23,72.56h16.54l5.81-17.86h24.64l5.72,17.86h18.86l-27.13-72.56h-16.21ZM205.12,288.12l8.33-25.62,8.2,25.62h-16.53Z"/>
      <path class="cls-1" d="M293.3,291.98h11.69v15.26c-.31.08-.62.16-.94.24-2.68.63-5.42.94-8.21.94-5,0-9.32-1.06-12.96-3.2-3.64-2.13-6.47-5.24-8.49-9.32-2.02-4.08-3.03-8.95-3.03-14.61,0-5.07.83-9.46,2.48-13.18,1.65-3.71,4.01-6.58,7.06-8.6,3.05-2.02,6.78-3.03,11.19-3.03,3.16,0,6.45.63,9.87,1.87,3.42,1.25,6.89,3.57,10.42,6.95l7.17-14.67c-3.53-2.21-7.55-3.8-12.07-4.8-4.52-.99-8.91-1.49-13.18-1.49-6.1,0-11.69.96-16.76,2.87-5.07,1.91-9.47,4.61-13.18,8.1-3.71,3.49-6.6,7.65-8.66,12.46-2.06,4.82-3.09,10.13-3.09,15.93,0,7.35,1.62,13.75,4.85,19.19,3.23,5.44,7.92,9.69,14.06,12.74,6.14,3.05,13.54,4.58,22.22,4.58,2.94,0,5.94-.2,8.99-.61,3.05-.41,6.07-1.05,9.04-1.93,2.98-.88,5.75-1.99,8.33-3.31v-33.52h-26.8v11.14Z"/>
      <polygon class="cls-1" points="387.78 292.85 351.55 246 348.35 246 341.29 246 335.56 246 335.56 318.56 350.55 318.56 349.01 267.9 387.71 318.56 388.6 318.56 394.55 318.56 401.39 318.56 401.39 246 386.28 246 387.78 292.85"/>
      <polygon class="cls-1" points="435.39 305.88 435.39 287.79 460.65 287.79 460.65 275.77 435.39 275.77 435.39 258.68 465.06 258.68 465.06 246 418.63 246 418.63 318.56 468.37 318.56 468.37 305.88 435.39 305.88"/>
    </g>
  </g>
</svg>