<?xml version="1.0" encoding="UTF-8"?>
<svg id="Calque_2" data-name="Calque 2" xmlns="http://www.w3.org/2000/svg" viewBox="0 0 321.43 153.39">
  <defs>
    <style>
      .cls-1 {
        fill: #c60000;
      }

      .cls-2 {
        fill: #2b5df2;
      }

      .cls-3 {
        fill: #101011;
      }

      .cls-4 {
        fill: #fff;
      }

      .cls-5 {
        fill: #f3d000;
      }
    </style>
  </defs>
  <g id="Calque_1-2" data-name="Calque 1">
    <g>
      <path class="cls-3" d="M267.09,136.77l26.41-26.41,23.88-23.88c2.61-2.61,4.05-6.09,4.05-9.78s-1.44-7.17-4.05-9.79l-23.88-23.88-13.42-13.41-13-13c-.18-.18-.37-.36-.57-.54-2.53-2.27-5.81-3.51-9.21-3.51-.63,0-1.27.04-1.9.13-.26.04-.52.08-.79.13-2.21.44-4.31,1.42-6.05,2.84-.16.13-.32.27-.49.41-.19.17-.38.35-.57.54l-31.79,31.79,2.66,2.66,5.38-5.38,13.42-13.42,12.99-12.99c.14-.14.27-.27.42-.4,3.82-3.41,9.6-3.41,13.42,0,.14.13.28.26.42.4l13,13,13.42,13.41,13.42,13.42,10.46,10.46c1.97,1.97,2.95,4.55,2.95,7.13s-.98,5.16-2.95,7.12l-10.46,10.46-13.42,13.42-13.42,13.41-13,13c-.14.14-.27.27-.42.4-3.81,3.41-9.6,3.41-13.42,0-.14-.13-.28-.26-.42-.4l-12.99-12.99-13.42-13.42-5.38-5.38-2.66,2.66,31.79,31.79c.18.18.37.36.57.54,2.54,2.27,5.81,3.52,9.21,3.52.63,0,1.27-.04,1.9-.13.34-.05.68-.11,1.01-.18,2.34-.5,4.52-1.61,6.31-3.21.19-.17.38-.35.57-.54Z"/>
      <polygon class="cls-4" points="218.39 102.32 223.77 107.7 218.39 102.32 218.39 102.32"/>
      <path class="cls-5" d="M314.72,83.82c1.97-1.97,2.95-4.55,2.95-7.12s-.98-5.16-2.95-7.13l-10.46-10.46v35.18l10.46-10.46Z"/>
      <polygon class="cls-1" points="304.26 94.29 304.26 59.11 290.84 45.69 290.84 107.7 304.26 94.29"/>
      <polygon class="cls-5" points="290.84 107.7 290.84 45.69 277.43 32.28 277.43 121.11 290.84 107.7"/>
      <path class="cls-1" d="M264.43,134.11l13-13V32.28l-13-13c-.14-.14-.27-.27-.42-.4v115.61c.14-.13.28-.26.42-.4Z"/>
      <path class="cls-5" d="M264.01,134.5V18.89c-3.81-3.41-9.6-3.41-13.42,0v115.61c3.82,3.41,9.6,3.41,13.42,0Z"/>
      <path class="cls-1" d="M237.19,79.2v41.92l12.99,12.99c.14.14.27.27.42.4V18.89c-.14.13-.28.26-.42.4l-12.99,12.99v41.92c.26,1.66.26,3.34,0,5Z"/>
      <path class="cls-5" d="M232.74,65.43c2.47,2.47,3.94,5.56,4.44,8.77v-41.92l-13.42,13.42v10.76l8.97,8.97Z"/>
      <path class="cls-5" d="M232.74,87.97l-8.97,8.97v10.76l13.42,13.42v-41.92c-.51,3.21-1.98,6.3-4.44,8.77Z"/>
      <polygon class="cls-1" points="223.77 45.69 218.39 51.08 223.77 56.46 223.77 45.69"/>
      <polygon class="cls-1" points="218.39 102.32 223.77 107.7 223.77 96.94 218.39 102.32"/>
      <path class="cls-2" d="M84.02,76.7c0-4.26,1.66-8.26,4.67-11.27l2.82-2.82h-5.07s3.98-9.92,3.98-9.92h-23.85l3.95,9.89h-12.7l3.89-9.9h-23.86l3.98,9.91h-12.72l5.47-13.78,59.19.05,3.24,8.27,6.05-6.05-31.79-31.79c-3.94-3.94-10.32-3.94-14.25,0L6.71,69.57c-3.94,3.94-3.94,10.31,0,14.25l50.29,50.29c3.94,3.94,10.32,3.94,14.25,0l31.79-31.79-14.35-14.35c-3.01-3.01-4.67-7.01-4.67-11.27ZM64.11,68.17c4.91,5.78,7.9,11.03,6.52,17.83-.49,2.41-1.44,4.76-2.36,7.02-.55,1.35-1.11,2.75-1.59,4.17-.76,2.56-1.07,4.75-.98,6.85h-3.19c.05-2.6-.27-4.85-.97-6.87-.44-1.26-.95-2.52-1.45-3.74-.97-2.4-1.98-4.88-2.49-7.43-1.18-5.98.95-11.81,6.51-17.83ZM43.38,96.19c-1.1-4.22-.05-7.26,2.9-8.33,3.62-1.32,9.22.87,11.78,6.26,1.66,3.17,2.55,6.42,2.7,9.92h-2.44c-.02-.14-.04-.29-.1-.45-.67-1.86-3.64-6.26-6.35-6.36h-.12s-.1.05-.1.05c-1.53.83-.49,3.74.2,5.66.02.06.05.13.07.19-4.39-.62-7.56-3.18-8.54-6.93ZM70.95,114.63c-.74-.16-1.62-.65-2.32-1.04-.9-.5-1.31-.72-1.66-.5-.16.1-.24.28-.23.48-.01,2.81-.71,6.87-2.62,9.21-1.91-2.15-2.61-6.65-2.61-9.21.01-.21-.07-.38-.23-.48-.35-.23-.76,0-1.66.5-.71.39-1.58.88-2.32,1.04-.69.15-1.54.31-2.22.42,1.81-1.68,4.26-4.86,5.19-7h7.72c.93,2.14,3.38,5.32,5.19,7-.68-.11-1.53-.27-2.22-.42ZM73.44,107.19h-18.61v-2.3h18.61v2.3ZM84.85,95.94c-.98,3.75-4.15,6.31-8.54,6.93.02-.06.04-.12.07-.19.69-1.92,1.73-4.83.2-5.66l-.1-.06h-.12c-2.7.11-5.68,4.51-6.35,6.37-.06.18-.09.35-.11.51,0,.07-.02.13-.03.19h-2.41c.13-3.59,1.01-6.92,2.72-10.18,2.55-5.37,8.15-7.57,11.77-6.25,2.95,1.07,4,4.11,2.9,8.33Z"/>
      <path class="cls-5" d="M81.96,87.61c-3.62-1.32-9.22.87-11.77,6.25-1.71,3.26-2.59,6.59-2.72,10.18h2.41c.01-.06.02-.13.03-.19.02-.16.04-.33.11-.51.67-1.86,3.64-6.26,6.35-6.36h.12s.1.05.1.05c1.53.83.49,3.74-.2,5.66-.02.06-.05.13-.07.19,4.39-.62,7.56-3.18,8.54-6.93,1.1-4.22.05-7.26-2.9-8.33Z"/>
      <path class="cls-5" d="M51.65,97.28l.1-.06h.12c2.7.11,5.68,4.51,6.35,6.37.06.16.08.31.1.45h2.44c-.16-3.49-1.04-6.74-2.7-9.92-2.56-5.39-8.16-7.58-11.78-6.26-2.95,1.08-4,4.11-2.9,8.33.98,3.75,4.15,6.31,8.54,6.93-.02-.06-.04-.12-.07-.19-.69-1.92-1.73-4.83-.2-5.66Z"/>
      <path class="cls-5" d="M60.09,93.43c.49,1.22,1.01,2.48,1.45,3.74.71,2.02,1.03,4.27.97,6.87h3.19c-.09-2.09.23-4.29.98-6.85.47-1.42,1.04-2.82,1.59-4.17.92-2.27,1.87-4.61,2.36-7.02,1.38-6.8-1.6-12.04-6.52-17.83-5.57,6.02-7.7,11.85-6.51,17.83.5,2.55,1.51,5.03,2.49,7.43Z"/>
      <path class="cls-5" d="M67.98,108.05h-7.72c-.93,2.14-3.39,5.32-5.19,7,.68-.11,1.53-.27,2.22-.42.74-.16,1.62-.65,2.32-1.04.9-.5,1.31-.72,1.66-.5.16.1.24.28.23.48,0,2.56.69,7.06,2.61,9.21,1.91-2.34,2.61-6.4,2.62-9.21,0-.21.07-.38.23-.48.35-.23.76,0,1.66.5.71.39,1.58.88,2.32,1.04.69.15,1.54.31,2.22.42-1.81-1.68-4.26-4.86-5.19-7Z"/>
      <rect class="cls-5" x="54.82" y="104.89" width="18.61" height="2.3"/>
      <polygon class="cls-1" points="34.56 48.8 29.1 62.59 41.82 62.59 37.84 52.68 61.71 52.68 57.81 62.58 70.51 62.58 66.56 52.69 90.41 52.69 86.43 62.6 91.5 62.61 96.99 57.13 93.75 48.85 34.56 48.8"/>
      <path class="cls-3" d="M218.39,102.32l5.38-5.38,8.97-8.97c2.47-2.47,3.94-5.56,4.44-8.77.26-1.66.26-3.34,0-5-.51-3.21-1.98-6.3-4.44-8.77l-8.97-8.97-5.38-5.38-2.66-2.66L171.98,4.67c-3.01-3.01-7.01-4.67-11.27-4.67s-8.26,1.66-11.27,4.67l-30.38,30.38-13.37,13.37-31.79-31.79c-2.61-2.61-6.09-4.05-9.78-4.05s-7.17,1.44-9.78,4.05L4.05,66.91c-5.4,5.4-5.4,14.17,0,19.57l50.29,50.29c2.61,2.61,6.09,4.05,9.78,4.05s7.17-1.44,9.78-4.05l31.79-31.79,43.75,43.75c3.01,3.01,7.01,4.67,11.27,4.67s8.26-1.66,11.27-4.67l43.75-43.75,2.66-2.66h0ZM71.24,134.11c-3.94,3.94-10.32,3.94-14.25,0L6.71,83.82c-3.94-3.94-3.94-10.32,0-14.25L56.99,19.28c3.94-3.94,10.32-3.94,14.25,0l31.79,31.79-6.05,6.05-5.48,5.48-2.82,2.82c-3.01,3.01-4.67,7.01-4.67,11.27s1.66,8.26,4.67,11.27l14.35,14.35-31.79,31.79ZM169.32,146.07c-4.75,4.75-12.46,4.75-17.22,0l-30.38-30.38,38.99-38.99-38.99-38.99,30.38-30.38c4.75-4.75,12.46-4.75,17.22,0l30.38,30.38-38.99,38.99,38.99,38.99-30.38,30.38Z"/>
      <path class="cls-1" d="M169.32,7.33c-4.75-4.75-12.46-4.75-17.22,0l-30.38,30.38,38.99,38.99,38.99-38.99-30.38-30.38Z"/>
      <path class="cls-1" d="M121.72,115.69l30.38,30.38c4.75,4.75,12.46,4.75,17.22,0l30.38-30.38-38.99-38.99-38.99,38.99Z"/>
    </g>
  </g>
</svg>