<?xml version="1.0" encoding="UTF-8"?>
<svg id="Calque_2" data-name="Calque 2" xmlns="http://www.w3.org/2000/svg" viewBox="0 0 321.43 153.39">
  <defs>
    <style>
      .cls-1 {
        fill: #c60000;
      }
    </style>
  </defs>
  <g id="Calque_1-2" data-name="Calque 1">
    <g>
      <path class="cls-1" d="M267.09,136.77l26.41-26.41,23.88-23.88c2.61-2.61,4.05-6.09,4.05-9.78s-1.44-7.17-4.05-9.79l-23.88-23.88-13.42-13.41-13-13c-.18-.18-.37-.36-.57-.54-2.53-2.27-5.81-3.51-9.21-3.51-.63,0-1.27.04-1.9.13-.26.04-.52.08-.79.13-2.21.44-4.31,1.42-6.05,2.84-.16.13-.32.27-.49.41-.19.17-.38.35-.57.54l-31.79,31.79,2.66,2.66,5.38-5.38,13.42-13.42,12.99-12.99c.14-.14.27-.27.42-.4,3.82-3.41,9.6-3.41,13.42,0,.14.13.28.26.42.4l13,13,13.42,13.41,13.42,13.41,10.46,10.46c1.97,1.97,2.95,4.55,2.95,7.13s-.98,5.16-2.95,7.12l-10.46,10.46-13.42,13.41-13.42,13.41-13,13c-.14.14-.27.27-.42.4-3.81,3.41-9.6,3.41-13.42,0-.14-.13-.28-.26-.42-.4l-12.99-12.99-13.42-13.41-5.38-5.38-2.66,2.66,31.79,31.79c.18.18.37.36.57.54,2.54,2.27,5.81,3.51,9.21,3.51.63,0,1.27-.04,1.9-.13.34-.05.68-.11,1.01-.18,2.34-.5,4.52-1.61,6.31-3.21.19-.17.38-.35.57-.54Z"/>
      <path class="cls-1" d="M314.72,83.82c1.97-1.97,2.95-4.55,2.95-7.12s-.98-5.16-2.95-7.13l-10.46-10.46v35.18l10.46-10.46Z"/>
      <polygon class="cls-1" points="290.84 107.7 290.84 45.69 277.43 32.28 277.43 121.11 290.84 107.7"/>
      <path class="cls-1" d="M264.01,134.5V18.89c-3.81-3.41-9.6-3.41-13.42,0v115.61c3.82,3.41,9.6,3.41,13.42,0Z"/>
      <path class="cls-1" d="M81.96,87.61c-3.62-1.32-9.22.87-11.77,6.25-1.71,3.26-2.59,6.59-2.72,10.18h2.41c.01-.06.02-.13.03-.19.02-.16.04-.33.11-.51.67-1.86,3.64-6.26,6.35-6.36h.12s.1.05.1.05c1.53.83.49,3.74-.2,5.66-.02.06-.05.13-.07.19,4.39-.62,7.56-3.18,8.54-6.93,1.1-4.22.05-7.26-2.9-8.33Z"/>
      <path class="cls-1" d="M51.65,97.28l.1-.05h.12c2.71.11,5.68,4.51,6.35,6.37.06.16.08.31.1.45h2.44c-.16-3.49-1.04-6.74-2.7-9.92-2.56-5.39-8.16-7.58-11.78-6.26-2.95,1.07-4,4.11-2.9,8.33.98,3.75,4.15,6.31,8.54,6.93-.02-.06-.04-.12-.07-.19-.69-1.93-1.73-4.83-.2-5.66Z"/>
      <path class="cls-1" d="M60.09,93.43c.49,1.22,1.01,2.48,1.45,3.74.71,2.02,1.03,4.27.97,6.87h3.19c-.09-2.09.23-4.29.98-6.85.47-1.42,1.04-2.82,1.59-4.17.92-2.27,1.87-4.61,2.36-7.02,1.38-6.8-1.6-12.04-6.52-17.83-5.57,6.02-7.7,11.85-6.51,17.83.5,2.55,1.51,5.03,2.49,7.43Z"/>
      <path class="cls-1" d="M67.98,108.05h-7.72c-.93,2.14-3.39,5.32-5.19,7,.68-.11,1.53-.27,2.22-.42.74-.16,1.62-.65,2.32-1.04.9-.5,1.31-.72,1.66-.5.16.1.24.28.23.48,0,2.56.69,7.06,2.61,9.21,1.91-2.34,2.61-6.4,2.62-9.21,0-.2.07-.38.23-.48.35-.23.76,0,1.66.5.71.39,1.58.88,2.32,1.04.69.15,1.55.31,2.22.42-1.81-1.68-4.26-4.86-5.19-7Z"/>
      <rect class="cls-1" x="54.82" y="104.89" width="18.61" height="2.3"/>
      <path class="cls-1" d="M223.77,96.94v10.76l13.42,13.41v-41.92c.26-1.66.26-3.34,0-5v-41.92l-13.42,13.42v10.76l-5.38-5.38-2.66-2.66L171.98,4.67c-3.01-3.01-7.01-4.67-11.27-4.67s-8.26,1.66-11.27,4.67l-30.38,30.38-13.37,13.37-31.79-31.79c-2.61-2.61-6.09-4.05-9.79-4.05s-7.17,1.44-9.78,4.05L4.05,66.91c-5.4,5.4-5.4,14.17,0,19.57l50.29,50.29c2.61,2.61,6.09,4.05,9.78,4.05s7.17-1.44,9.79-4.05l31.79-31.79,43.75,43.75c3.01,3.01,7.01,4.67,11.27,4.67s8.26-1.66,11.27-4.67l43.75-43.75,2.66-2.66,5.38-5.38ZM71.24,134.11c-3.93,3.94-10.32,3.94-14.25,0L6.71,83.82c-3.93-3.94-3.93-10.32,0-14.25L56.99,19.28c3.93-3.94,10.32-3.94,14.25,0l31.79,31.79-6.05,6.05-3.24-8.27-59.19-.05-5.47,13.78h12.72l-3.98-9.91h23.86l-3.89,9.9h12.7l-3.95-9.89h23.85l-3.98,9.91h5.07s-2.82,2.83-2.82,2.83c-3.01,3.01-4.67,7.01-4.67,11.27s1.66,8.26,4.67,11.27l14.35,14.35-31.79,31.79ZM199.7,115.69l-38.99-38.99-38.99,38.99-30.38-30.38c-4.76-4.76-4.76-12.46,0-17.22l30.38-30.38,38.99,38.99,38.99-38.99,30.38,30.38c4.75,4.76,4.75,12.46,0,17.22l-30.38,30.38Z"/>
    </g>
  </g>
</svg>