<?xml version="1.0" encoding="UTF-8"?>
<svg id="Calque_2" data-name="Calque 2" xmlns="http://www.w3.org/2000/svg" viewBox="0 0 468.37 150.85">
  <defs>
    <style>
      .cls-1 {
        fill: #fff;
      }

      .cls-2 {
        fill: none;
      }
    </style>
  </defs>
  <g id="Calque_1-2" data-name="Calque 1">
    <g>
      <path class="cls-2" d="M31.2,103.6c1.65-1.58,2.48-3.69,2.48-6.34,0-2.35-.74-4.45-2.21-6.29-1.47-1.84-4.26-2.76-8.38-2.76h-7.83v17.75h9.37c2.72,0,4.91-.79,6.56-2.37Z"/>
      <path class="cls-2" d="M33.35,120.09c-2.06-1.84-5.48-2.76-10.26-2.76h-7.83v20.07h10.15c3.75,0,6.52-.88,8.33-2.65,1.8-1.76,2.7-4.19,2.7-7.28s-1.03-5.55-3.09-7.39Z"/>
      <polygon class="cls-2" points="205.13 118.76 221.66 118.76 213.46 93.14 205.13 118.76"/>
      <path class="cls-2" d="M392.26,13.54c-2.88-1.89-6.78-2.83-11.72-2.83h-5.55v39.64h6.52c3.7,0,6.77-.52,9.21-1.55,2.44-1.03,4.36-2.45,5.77-4.25,1.41-1.8,2.39-3.85,2.95-6.15.56-2.3.84-4.75.84-7.34,0-3.66-.62-7.02-1.85-10.09-1.23-3.07-3.29-5.54-6.17-7.43Z"/>
      <polygon class="cls-1" points="13.65 59.55 39.82 59.55 39.82 49.19 13.65 49.19 13.65 1.33 0 1.33 0 59.55 4.23 59.55 13.65 59.55"/>
      <polygon class="cls-1" points="87.05 49.37 60.71 49.37 60.71 34.86 80.88 34.86 80.88 25.22 60.71 25.22 60.71 11.5 84.4 11.5 84.4 1.33 47.31 1.33 47.31 59.55 87.05 59.55 87.05 49.37"/>
      <path class="cls-1" d="M131.22,52.38c2.05-2.83,3.08-6.34,3.08-10.53,0-2.59-.47-4.82-1.41-6.68-.94-1.86-2.17-3.46-3.7-4.82-1.53-1.36-3.2-2.54-5.02-3.54-1.82-1-3.66-1.92-5.51-2.74-1.85-.83-3.54-1.64-5.07-2.43-1.53-.8-2.76-1.67-3.7-2.61-.94-.94-1.41-2.09-1.41-3.45,0-.83.2-1.67.62-2.52.41-.85,1.09-1.58,2.03-2.17.94-.59,2.2-.88,3.79-.88,1.94,0,4.1.43,6.47,1.28,2.38.86,4.57,2.05,6.56,3.58l4.58-11.59c-2.29-1.12-4.88-1.95-7.75-2.48-2.88-.53-5.49-.8-7.84-.8-3.99,0-7.56.74-10.7,2.21-3.14,1.48-5.62,3.58-7.44,6.33-1.82,2.74-2.73,6.03-2.73,9.87,0,2.6.45,4.82,1.37,6.68.91,1.86,2.13,3.44,3.66,4.73,1.53,1.3,3.22,2.43,5.06,3.41,1.85.97,3.67,1.86,5.46,2.65,1.79.8,3.45,1.59,4.98,2.39,1.53.8,2.76,1.71,3.7,2.74.94,1.03,1.41,2.26,1.41,3.67,0,1.83-.63,3.27-1.89,4.34-1.26,1.06-2.98,1.59-5.15,1.59-2.58,0-5.29-.59-8.1-1.77-2.82-1.18-5.43-2.68-7.84-4.51l-5.29,11.24c2.23,1.36,4.96,2.58,8.19,3.67,3.23,1.09,6.78,1.64,10.66,1.64s7.56-.71,10.88-2.12c3.32-1.42,6-3.54,8.06-6.37Z"/>
      <polygon class="cls-1" points="204.96 11.77 204.96 1.33 167.25 1.33 167.25 59.55 180.91 59.55 180.91 37.96 201.61 37.96 201.61 27.61 180.91 27.61 180.91 11.77 204.96 11.77"/>
      <rect class="cls-1" x="214.28" y="1.33" width="14.01" height="58.22"/>
      <polygon class="cls-1" points="242.26 1.33 242.26 59.55 246.49 59.55 255.92 59.55 282.08 59.55 282.08 49.19 255.92 49.19 255.92 1.33 242.26 1.33"/>
      <path class="cls-1" d="M323.28,30.35c-1.53-1.36-3.2-2.54-5.02-3.54-1.82-1-3.66-1.92-5.51-2.74-1.85-.83-3.54-1.64-5.07-2.43-1.53-.8-2.76-1.67-3.7-2.61-.94-.94-1.41-2.09-1.41-3.45,0-.83.21-1.67.62-2.52.41-.85,1.09-1.58,2.03-2.17.94-.59,2.2-.88,3.79-.88,1.94,0,4.1.43,6.47,1.28,2.38.86,4.57,2.05,6.56,3.58l4.58-11.59c-2.29-1.12-4.88-1.95-7.75-2.48-2.88-.53-5.49-.8-7.84-.8-3.99,0-7.56.74-10.7,2.21-3.14,1.48-5.62,3.58-7.44,6.33-1.82,2.74-2.73,6.03-2.73,9.87,0,2.6.45,4.82,1.37,6.68.91,1.86,2.13,3.44,3.66,4.73,1.53,1.3,3.22,2.43,5.07,3.41,1.85.97,3.67,1.86,5.46,2.65,1.79.8,3.45,1.59,4.98,2.39,1.53.8,2.76,1.71,3.7,2.74.94,1.03,1.41,2.26,1.41,3.67,0,1.83-.63,3.27-1.89,4.34-1.26,1.06-2.98,1.59-5.15,1.59-2.58,0-5.29-.59-8.1-1.77-2.82-1.18-5.43-2.68-7.84-4.51l-5.29,11.24c2.23,1.36,4.96,2.58,8.19,3.67,3.23,1.09,6.78,1.64,10.66,1.64s7.56-.71,10.88-2.12c3.32-1.42,6-3.54,8.06-6.37,2.06-2.83,3.08-6.34,3.08-10.53,0-2.59-.47-4.82-1.41-6.68-.94-1.86-2.17-3.46-3.7-4.82Z"/>
      <path class="cls-1" d="M405.29,8.23c-3-2.3-6.52-4.03-10.57-5.18-4.05-1.15-8.43-1.73-13.13-1.73h-20.26v58.22h18.94c5.93,0,11.07-.83,15.42-2.48,4.35-1.65,7.93-3.91,10.75-6.77,2.82-2.86,4.92-6.13,6.3-9.82,1.38-3.69,2.07-7.56,2.07-11.64,0-4.54-.84-8.54-2.51-11.99-1.67-3.45-4.01-6.33-7-8.63ZM399.44,38.4c-.56,2.3-1.54,4.35-2.95,6.15-1.41,1.8-3.33,3.22-5.77,4.25-2.44,1.03-5.51,1.55-9.21,1.55h-6.52V10.71h5.55c4.93,0,8.84.94,11.72,2.83,2.88,1.89,4.93,4.37,6.17,7.43,1.23,3.07,1.85,6.43,1.85,10.09,0,2.6-.28,5.04-.84,7.34Z"/>
      <polygon class="cls-1" points="464.83 49.37 438.49 49.37 438.49 34.86 458.66 34.86 458.66 25.22 438.49 25.22 438.49 11.5 462.18 11.5 462.18 1.33 425.1 1.33 425.1 59.55 464.83 59.55 464.83 49.37"/>
      <path class="cls-1" d="M40.54,109.67c.23-.18.47-.37.69-.56,2.32-1.95,4.14-4.21,5.46-6.78,1.32-2.57,1.98-5.4,1.98-8.49,0-3.45-.99-6.49-2.98-9.1-1.98-2.61-4.71-4.61-8.16-6.01-3.46-1.4-7.39-2.1-11.8-2.1H.05v72.56h24.15c6.03,0,11.21-.94,15.55-2.81,4.34-1.87,7.7-4.45,10.09-7.72,2.39-3.27,3.58-7,3.58-11.19s-1.18-7.9-3.53-10.92c-2.27-2.91-5.39-5.21-9.35-6.88ZM15.27,88.22h7.83c4.12,0,6.91.92,8.38,2.76,1.47,1.84,2.21,3.93,2.21,6.29,0,2.65-.83,4.76-2.48,6.34-1.65,1.58-3.84,2.37-6.56,2.37h-9.37v-17.75ZM33.74,134.75c-1.8,1.76-4.58,2.65-8.33,2.65h-10.15v-20.07h7.83c4.78,0,8.2.92,10.26,2.76,2.06,1.84,3.09,4.3,3.09,7.39s-.9,5.51-2.7,7.28Z"/>
      <polygon class="cls-1" points="82.74 118.43 107.99 118.43 107.99 106.41 82.74 106.41 82.74 89.32 112.41 89.32 112.41 76.64 65.98 76.64 65.98 149.2 115.71 149.2 115.71 136.52 82.74 136.52 82.74 118.43"/>
      <path class="cls-1" d="M168.48,112.81c-1.91-1.69-4.01-3.16-6.29-4.41-2.28-1.25-4.58-2.39-6.89-3.42-2.32-1.03-4.43-2.04-6.34-3.03-1.91-.99-3.46-2.08-4.63-3.25-1.18-1.17-1.76-2.61-1.76-4.3,0-1.03.26-2.08.77-3.14.51-1.06,1.36-1.97,2.54-2.7,1.18-.73,2.76-1.1,4.74-1.1,2.43,0,5.13.53,8.1,1.6,2.98,1.07,5.72,2.55,8.21,4.47l5.73-14.45c-2.87-1.4-6.1-2.43-9.7-3.09-3.6-.66-6.87-.99-9.81-.99-5,0-9.47.92-13.4,2.76-3.93,1.84-7.04,4.47-9.32,7.88-2.28,3.42-3.42,7.52-3.42,12.3,0,3.24.57,6.01,1.71,8.33,1.14,2.32,2.66,4.28,4.58,5.9,1.91,1.62,4.02,3.03,6.34,4.25,2.32,1.21,4.59,2.32,6.84,3.31,2.24.99,4.32,1.98,6.23,2.98,1.91.99,3.45,2.13,4.63,3.42,1.18,1.29,1.76,2.81,1.76,4.58,0,2.28-.79,4.08-2.37,5.4-1.58,1.32-3.73,1.98-6.45,1.98-3.24,0-6.62-.73-10.15-2.21-3.53-1.47-6.8-3.34-9.81-5.62l-6.62,14c2.79,1.69,6.21,3.22,10.25,4.58,4.04,1.36,8.49,2.04,13.34,2.04s9.46-.88,13.62-2.65c4.15-1.76,7.52-4.41,10.09-7.94,2.57-3.53,3.86-7.9,3.86-13.12,0-3.23-.59-6.01-1.76-8.33-1.18-2.32-2.72-4.32-4.63-6.01Z"/>
      <path class="cls-1" d="M206.92,76.64l-28.23,72.56h16.54l5.81-17.86h24.64l5.72,17.86h18.86l-27.13-72.56h-16.21ZM205.13,118.76l8.33-25.62,8.2,25.62h-16.53Z"/>
      <path class="cls-1" d="M293.3,122.62h11.69v15.26c-.31.08-.62.16-.94.24-2.68.63-5.42.94-8.22.94-5,0-9.32-1.06-12.96-3.2-3.64-2.13-6.47-5.24-8.49-9.32-2.02-4.08-3.03-8.95-3.03-14.61,0-5.07.83-9.46,2.48-13.18,1.65-3.71,4.01-6.58,7.06-8.6,3.05-2.02,6.78-3.03,11.19-3.03,3.16,0,6.45.63,9.87,1.87,3.42,1.25,6.89,3.57,10.42,6.95l7.17-14.67c-3.53-2.21-7.55-3.8-12.07-4.8-4.52-.99-8.91-1.49-13.18-1.49-6.1,0-11.69.96-16.76,2.87-5.07,1.91-9.47,4.61-13.18,8.1-3.71,3.49-6.6,7.65-8.66,12.46-2.06,4.82-3.09,10.13-3.09,15.93,0,7.35,1.62,13.75,4.85,19.19,3.23,5.44,7.92,9.69,14.06,12.74,6.14,3.05,13.54,4.58,22.22,4.58,2.94,0,5.94-.2,8.99-.61,3.05-.4,6.06-1.05,9.04-1.93,2.98-.88,5.75-1.98,8.33-3.31v-33.52h-26.8v11.14Z"/>
      <polygon class="cls-1" points="387.78 123.49 351.55 76.64 348.35 76.64 341.29 76.64 335.56 76.64 335.56 149.2 350.55 149.2 349.01 98.54 387.71 149.2 388.6 149.2 394.55 149.2 401.39 149.2 401.39 76.64 386.28 76.64 387.78 123.49"/>
      <polygon class="cls-1" points="435.39 136.52 435.39 118.43 460.65 118.43 460.65 106.41 435.39 106.41 435.39 89.32 465.06 89.32 465.06 76.64 418.63 76.64 418.63 149.2 468.37 149.2 468.37 136.52 435.39 136.52"/>
    </g>
  </g>
</svg>